<?xml version="1.0" standalone="no"?>
<!DOCTYPE svg PUBLIC "-//W3C//DTD SVG 20010904//EN"
 "http://www.w3.org/TR/2001/REC-SVG-20010904/DTD/svg10.dtd">
<svg version="1.0" xmlns="http://www.w3.org/2000/svg"
 width="1024.000000pt" height="1024.000000pt" viewBox="0 0 1024.000000 1024.000000"
 preserveAspectRatio="xMidYMid meet">

<g transform="translate(0.000000,1024.000000) scale(0.100000,-0.100000)"
fill="#000000" stroke="none">
<path d="M0 5120 l0 -5120 5120 0 5120 0 0 5120 0 5120 -5120 0 -5120 0 0
-5120z m5510 3841 c369 -60 593 -133 927 -302 353 -180 611 -355 938 -637 259
-223 596 -586 858 -925 55 -71 121 -152 147 -180 53 -60 132 -162 149 -195 11
-20 8 -28 -27 -70 -21 -26 -82 -101 -134 -167 -295 -369 -429 -525 -643 -744
-515 -526 -1094 -916 -1645 -1109 -387 -136 -710 -186 -1057 -164 -381 24
-681 100 -1088 277 -313 136 -661 355 -975 615 -187 154 -545 495 -646 615
-37 44 -111 130 -164 190 -53 61 -130 155 -172 210 -41 55 -97 125 -124 155
-27 30 -69 79 -94 109 -42 52 -43 54 -29 80 25 43 419 542 542 686 124 145
342 377 420 447 45 40 107 96 137 124 136 125 438 350 665 494 176 113 513
278 735 360 137 51 436 120 605 140 50 5 101 12 115 14 68 12 442 -4 560 -23z
m-135 -4836 c47 -9 122 -29 166 -46 80 -31 200 -104 207 -126 2 -6 -19 -35
-45 -65 -27 -29 -77 -90 -111 -136 l-63 -82 -24 28 c-50 60 -209 109 -316 98
-98 -10 -167 -42 -235 -110 -80 -80 -99 -133 -99 -271 1 -80 5 -111 24 -157
70 -178 292 -287 476 -233 84 24 95 36 95 105 l0 58 -123 -5 -123 -6 0 164 1
164 298 0 299 0 -7 -235 c-3 -129 -7 -304 -8 -387 l-2 -153 -79 0 c-44 0 -154
-10 -245 -21 -313 -40 -477 -11 -673 118 -191 125 -298 344 -298 608 0 66 6
135 15 170 21 84 96 232 145 288 170 193 444 281 725 232z m2791 -15 c79 -20
294 -116 294 -132 0 -4 -17 -31 -39 -59 -21 -28 -60 -89 -86 -135 -26 -46 -51
-87 -57 -90 -5 -3 -22 5 -36 19 -79 73 -271 120 -359 86 -44 -16 -73 -49 -73
-82 0 -53 42 -78 247 -147 103 -35 210 -74 236 -87 104 -52 171 -145 198 -272
25 -119 -25 -257 -130 -361 -117 -116 -240 -163 -426 -163 -83 -1 -130 5 -190
21 -79 22 -297 124 -345 161 l-25 20 21 23 c12 13 47 64 78 113 31 50 65 101
76 113 l20 24 62 -47 c109 -83 224 -121 332 -112 100 8 166 54 166 116 0 37
-55 87 -117 105 -135 40 -322 111 -375 143 -149 89 -211 235 -174 411 36 171
151 289 329 337 82 22 277 19 373 -5z m-5751 0 l110 0 147 -368 c81 -202 172
-428 203 -502 31 -74 67 -162 80 -195 18 -46 98 -240 141 -341 4 -9 -7 -9 -42
-2 -25 6 -113 9 -193 7 l-147 -4 -43 122 -43 122 -243 -2 -244 -1 -38 -113
-38 -114 -140 -4 c-77 -2 -164 -7 -193 -11 l-54 -7 27 52 c44 87 185 438 285
706 10 28 42 109 70 180 28 72 64 166 80 210 15 44 37 105 49 135 11 30 25 75
31 99 11 43 12 43 48 37 20 -3 87 -6 147 -6z m1591 -22 c126 -38 214 -112 271
-230 65 -133 71 -292 16 -408 -36 -78 -99 -151 -159 -186 -24 -14 -42 -29 -40
-32 2 -4 39 -70 83 -147 44 -77 97 -171 118 -210 21 -38 53 -91 71 -116 19
-26 34 -49 34 -51 0 -2 -95 -3 -211 -2 l-212 2 -75 139 c-41 76 -95 180 -120
232 l-44 93 -37 -6 c-20 -3 -55 -6 -79 -6 l-43 0 3 -225 3 -224 -188 -3 c-185
-3 -188 -3 -180 17 4 11 9 312 10 669 4 636 3 649 -17 683 -11 19 -20 35 -20
36 0 1 172 -1 382 -4 302 -5 394 -9 434 -21z m2380 19 c1 -1 -3 -29 -8 -62
-15 -92 -2 -785 17 -854 29 -110 110 -171 225 -171 41 0 80 7 105 19 45 20
101 79 120 125 18 44 25 891 7 923 -6 12 -12 23 -12 25 0 2 92 3 206 3 201 0
205 0 198 -20 -5 -11 -11 -231 -14 -490 l-6 -470 -27 -74 c-35 -96 -76 -158
-146 -223 -179 -165 -493 -205 -716 -92 -134 68 -223 152 -264 247 -55 128
-56 139 -56 617 0 392 -2 449 -17 475 l-16 30 202 -3 c110 -2 202 -5 202 -5z
m-3851 -1814 c-4 -13 -21 -15 -101 -11 l-95 5 3 -41 3 -41 83 4 82 3 0 -41 0
-41 -85 0 -85 0 0 -40 0 -40 105 0 c102 0 105 -1 105 -22 0 -13 3 -33 6 -45
l6 -22 -161 2 c-130 2 -160 5 -156 15 3 8 5 98 5 202 l0 188 78 -4 c42 -3 106
-1 142 3 l65 8 3 -34 c2 -18 1 -40 -3 -48z m1068 70 c9 -30 95 -221 137 -305
22 -45 39 -82 38 -83 -2 -2 -25 -5 -52 -6 -47 -4 -48 -3 -60 31 l-11 35 -95 0
-95 0 -3 -35 -3 -35 -54 -1 c-30 0 -55 4 -55 8 0 5 9 27 21 50 12 23 39 84 61
137 102 247 87 221 129 221 26 0 38 -5 42 -17z m886 -305 l88 5 6 -44 c3 -24
5 -44 4 -45 -1 -1 -64 -4 -140 -6 l-137 -3 0 202 0 202 43 3 42 3 3 -161 2
-161 89 5z m550 267 c23 -30 52 -70 65 -90 l24 -35 64 84 c57 76 67 85 101 88
l37 4 0 -202 0 -202 -43 -3 -43 -4 4 118 c3 80 1 117 -6 117 -6 0 -33 -33 -59
-72 -26 -40 -54 -73 -60 -73 -7 0 -32 31 -55 69 -24 38 -47 71 -53 73 -6 2 -9
-40 -6 -117 l3 -120 -23 0 c-13 0 -34 3 -46 6 -23 6 -23 7 -23 210 l0 204 39
0 c35 0 42 -5 80 -55z m766 3 l0 -43 -97 4 -98 3 0 -41 0 -41 81 0 80 0 -3
-37 -3 -38 -76 2 -77 2 -5 -37 c-2 -20 -2 -40 0 -44 2 -5 48 -8 102 -8 l98 0
1 -42 2 -43 -150 0 -150 0 0 56 c0 31 3 123 6 205 l7 149 141 -2 141 -2 0 -43z
m450 -37 c-4 -3 -49 -6 -101 -5 l-94 1 -6 -34 c-4 -19 -3 -37 0 -41 4 -3 43
-5 87 -3 l80 3 -3 -39 -3 -38 -76 -3 -77 -3 -4 -39 -4 -40 102 0 101 0 6 -37
c4 -20 5 -38 4 -39 -1 -1 -68 -4 -149 -7 l-148 -5 0 204 0 203 143 3 142 3 3
-39 c2 -21 0 -41 -3 -45z m453 42 l-3 -48 -53 -3 -54 -3 3 -77 c2 -42 2 -111
1 -153 l-2 -77 -39 -4 -39 -3 -7 157 -7 158 -59 0 -59 0 0 45 0 44 153 4 c83
1 156 4 160 5 4 1 7 -19 5 -45z m252 -5 c0 -29 3 -116 6 -193 3 -77 2 -145 -3
-151 -4 -6 -27 -15 -50 -19 l-43 -7 0 211 0 211 45 0 45 0 0 -52z m330 -42
c47 -51 98 -109 113 -127 l28 -34 -6 105 c-3 58 -9 115 -12 128 -5 21 -2 22
46 22 l51 0 0 -58 c0 -33 3 -126 6 -208 l7 -149 -41 -3 c-40 -2 -42 0 -76 50
-40 61 -162 195 -170 188 -2 -3 0 -54 5 -114 6 -59 9 -109 7 -111 -2 -1 -24
-5 -49 -9 l-46 -7 -6 77 c-4 42 -7 135 -7 205 0 138 -3 130 55 138 6 0 49 -41
95 -93z m1163 62 c26 -12 47 -24 47 -27 -1 -3 -14 -21 -30 -40 l-29 -34 -27
22 c-45 36 -114 24 -114 -20 0 -18 23 -29 111 -53 33 -9 70 -28 89 -46 27 -25
31 -35 26 -61 -22 -109 -148 -154 -278 -98 l-58 25 29 35 c29 34 29 34 58 17
15 -9 44 -19 64 -23 29 -5 41 -2 63 17 39 33 27 54 -36 62 -97 13 -168 68
-168 130 0 24 10 42 38 69 63 62 119 68 215 25z m-6413 2 l39 -20 -20 -35
c-23 -39 -33 -42 -55 -20 -18 17 -61 19 -98 5 -52 -19 -19 -61 59 -75 59 -10
121 -49 133 -84 28 -80 -51 -162 -156 -161 -34 1 -56 7 -176 53 l-38 14 29 10
c16 6 37 18 46 28 16 15 21 16 50 2 75 -34 157 -28 157 12 0 26 -16 36 -80 51
-172 40 -210 133 -87 214 52 33 138 36 197 6z m976 -23 l-4 -42 -101 -3 -101
-3 0 -40 0 -41 85 7 85 7 0 -35 c0 -20 -5 -39 -11 -43 -6 -3 -43 -7 -83 -8
l-71 -1 -3 -37 -3 -38 104 0 104 0 6 -37 c4 -20 4 -40 1 -45 -3 -4 -72 -8
-155 -8 l-149 0 0 203 0 202 150 2 150 1 -4 -41z m976 -114 l3 -158 86 4 86 3
7 -42 c4 -24 5 -44 4 -46 -2 -2 -66 -4 -142 -5 l-138 -1 -2 201 -1 201 47 0
47 0 3 -157z m3985 130 c34 -16 62 -30 62 -33 0 -3 -16 -17 -36 -32 -32 -25
-37 -26 -56 -13 -25 18 -90 20 -119 4 -33 -18 -50 -73 -38 -119 21 -79 86
-123 155 -106 22 6 25 12 25 47 0 34 -3 40 -16 35 -9 -3 -27 -9 -41 -12 -23
-6 -24 -4 -21 27 3 34 4 34 64 41 34 3 70 8 80 10 17 3 19 -4 19 -87 l0 -90
-54 -27 c-94 -48 -176 -34 -245 43 -107 118 -99 233 22 310 60 38 116 39 199
2z"/>
<path d="M4965 8764 c-294 -33 -634 -130 -915 -261 -306 -144 -741 -437 -1035
-697 -230 -204 -548 -556 -795 -880 -41 -54 -96 -126 -122 -158 l-47 -60 67
-91 c36 -51 114 -146 172 -211 108 -122 191 -218 354 -411 85 -101 210 -223
448 -437 325 -293 760 -563 1148 -714 134 -51 455 -143 544 -154 230 -30 519
-30 725 0 239 34 685 189 912 318 189 107 550 362 759 536 181 151 479 464
724 760 32 39 84 100 116 136 31 36 76 92 100 125 24 33 59 74 78 90 l34 30
-39 45 c-22 25 -81 101 -133 170 -277 370 -472 588 -825 921 -164 154 -521
415 -725 528 -134 75 -389 203 -460 231 -115 46 -307 112 -366 125 -190 45
-567 75 -719 59z m495 -189 c293 -49 520 -136 770 -295 143 -91 237 -168 365
-301 254 -264 407 -563 492 -959 23 -106 25 -483 4 -595 -77 -409 -233 -705
-526 -1001 -151 -152 -219 -206 -378 -302 -222 -133 -532 -233 -847 -272 -286
-35 -666 21 -960 142 -283 116 -501 260 -702 464 -116 117 -175 196 -257 342
-134 239 -207 446 -240 686 -44 312 32 748 180 1036 151 296 340 516 599 700
172 122 404 235 597 290 93 27 305 71 386 80 104 12 406 3 517 -15z m1801
-1037 c102 -100 197 -203 211 -228 16 -28 28 -70 32 -110 4 -36 22 -121 39
-190 29 -118 31 -136 31 -325 1 -212 -22 -430 -52 -490 -18 -37 -114 -169
-155 -212 -17 -18 -35 -29 -41 -26 -6 3 -8 2 -3 -2 7 -8 -76 -98 -201 -219
l-64 -61 36 79 c47 103 51 108 82 94 20 -10 28 -8 48 11 13 12 23 30 22 39 -1
11 6 17 19 17 28 0 29 42 1 49 -35 9 -49 55 -32 104 43 122 106 461 106 573 0
48 0 49 33 51 l32 1 -32 4 c-29 4 -32 8 -37 46 -23 196 -30 240 -42 297 -25
110 -123 385 -199 556 -88 198 -94 200 166 -58z m-4067 111 c-130 -259 -219
-578 -245 -875 -11 -124 -11 -153 4 -245 40 -241 99 -447 174 -609 20 -41 51
-108 69 -148 l34 -74 -77 64 c-43 34 -111 97 -152 138 -72 74 -211 245 -211
260 0 4 -7 7 -15 6 -38 -3 -137 104 -363 392 -29 37 -66 84 -82 104 -17 20
-30 41 -30 47 0 21 270 369 389 501 42 47 104 119 138 160 79 95 398 386 411
375 2 -2 -18 -45 -44 -96z"/>
<path d="M4965 8364 c-111 -17 -257 -51 -361 -85 -425 -138 -808 -468 -1005
-869 -109 -221 -149 -370 -169 -622 -18 -222 23 -446 128 -693 100 -237 281
-474 505 -663 99 -82 179 -134 312 -200 129 -65 183 -86 313 -122 429 -118
817 -82 1227 115 151 72 254 144 393 272 194 180 355 410 435 623 95 250 124
462 99 718 -28 286 -113 525 -272 762 -80 120 -232 296 -316 366 -117 97 -316
215 -460 272 -231 92 -381 122 -624 127 -96 2 -188 1 -205 -1z m455 -503 c104
-26 169 -51 280 -107 95 -49 280 -187 280 -210 0 -7 36 -60 80 -116 101 -131
144 -208 186 -335 49 -151 59 -217 59 -413 0 -158 -3 -185 -27 -276 -42 -157
-104 -276 -223 -429 -244 -313 -651 -484 -1035 -435 -282 37 -498 140 -704
340 -201 194 -285 342 -336 592 -27 130 -27 347 -1 473 67 326 300 635 604
803 103 57 268 116 367 131 107 16 371 6 470 -18z"/>
<path d="M4630 7534 c-143 -103 -270 -234 -270 -278 0 -19 93 -116 111 -116 7
0 60 46 118 103 59 56 126 120 149 141 37 32 43 42 37 64 -5 21 -72 132 -79
132 -1 0 -31 -21 -66 -46z"/>
<path d="M5001 7275 c-82 -23 -208 -93 -261 -145 -59 -57 -142 -182 -163 -244
-75 -219 -27 -427 137 -604 121 -129 252 -185 436 -184 153 0 278 47 386 146
121 109 191 261 201 431 12 218 -67 372 -267 519 -95 70 -154 88 -295 92 -85
3 -136 0 -174 -11z m107 -279 c42 -22 102 -90 116 -131 39 -114 -79 -255 -214
-255 -120 0 -214 140 -170 254 12 32 77 104 115 128 36 22 115 24 153 4z"/>
<path d="M7260 5990 c0 -5 5 -10 10 -10 6 0 10 5 10 10 0 6 -4 10 -10 10 -5 0
-10 -4 -10 -10z"/>
<path d="M7250 5900 c0 -5 5 -10 10 -10 6 0 10 5 10 10 0 6 -4 10 -10 10 -5 0
-10 -4 -10 -10z"/>
<path d="M2373 6703 c9 -2 23 -2 30 0 6 3 -1 5 -18 5 -16 0 -22 -2 -12 -5z"/>
<path d="M2515 6689 c22 -5 47 -17 55 -27 25 -29 63 -52 87 -52 16 0 28 11 41
39 l19 38 -60 7 c-33 3 -87 6 -121 5 -60 -1 -60 -1 -21 -10z"/>
<path d="M2352 3534 c-56 -146 -101 -282 -95 -288 8 -7 263 -8 263 -1 0 3 -10
31 -23 63 -13 31 -33 89 -45 127 -12 39 -32 95 -45 125 l-24 54 -31 -80z"/>
<path d="M3580 3638 c0 -91 -3 -174 -6 -183 -6 -15 6 -16 127 -13 160 4 196
17 241 87 26 40 29 53 26 106 -5 75 -30 115 -94 146 -40 19 -64 22 -170 23
l-124 1 0 -167z"/>
<path d="M3528 2188 c-15 -40 -26 -73 -25 -74 1 -1 28 -4 60 -6 57 -5 58 -4
52 19 -11 45 -46 133 -53 133 -4 0 -19 -33 -34 -72z"/>
</g>
</svg>
